<svg xmlns="http://www.w3.org/2000/svg" xml:space="preserve" width="2380.903" height="2237.79" viewBox="0 0 629.947 592.082"><path d="M1381.963 16.03c-7.53.226-5.372-7.16-4.096-11.641 2.4-8.427 4.786-16.911 6.967-25.4 1.297-5.047 2.18-10.717 4.194-15.523.767-1.828 2.667-1.421 4.224-2.214 2.202-1.122 3.67-3.45 3.851-5.9.687-9.278-14.538-9.237-14.072.353.149 3.055 2.622 3.891 3.4 6.35.598 1.888-.914 5.214-1.43 7.056-1.641 5.86-3.277 11.735-4.753 17.639-2.064 8.258-5.83 16.96-6.752 25.4-1.904 0-3.816-.134-5.644.51-1.153.405-2.602 1.697-3.88 1.4-2.994-.692-6.68-6.12-8.82-8.26-5.703-5.704-11.576-11.224-17.286-16.934-2.211-2.21-5.743-4.674-7.262-7.408-.544-.98.134-2.136.196-3.175.152-2.512-.285-4.827-2.136-6.673-3.94-3.93-11.26-1.96-12.523 3.498-1.021 4.41 1.861 9.042 6.555 9.172 1.656.046 5.033-1.173 6.35-.5 1.976 1.011 3.732 3.526 5.292 5.086 3.713 3.713 7.509 7.32 11.289 10.946 3.714 3.564 7.297 7.287 10.936 10.927 1.676 1.675 4.064 3.458 5.096 5.644.817 1.73-.919 5.028-.863 7.056.161 5.784 5.342 10.052 10.936 10.22 5.116.154 10.035-4.058 10.554-9.162.223-2.19-1.122-5.784.392-7.399 1.85-1.97 4.572-3.333 6.693-5.017 5.953-4.726 11.94-9.398 17.992-13.993 2.862-2.173 6.435-6.452 9.878-7.536 1.317-.415 3.12.849 4.586.774 1.922-.098 3.224-1.942 4.939-1.99 3.918-.108 9.377 3.268 13.053 4.587 7.375 2.646 18.718 3.825 18.98 13.288.058 2.037-4.184 4.414-5.575 5.644-5.213 4.61-10.797 8.988-16.228 13.337-1.325 1.062-4.264 4.42-5.997 4.42-1.408 0-3.603-2.227-4.939-2.852-2.518-1.178-5.727-1.455-8.466-1.068-5.186.732-9.425 3.788-11.907 8.388-1.092 2.025-1.089 5.924-3.263 7.017-5.249 2.637-12.646 2.995-18.344 4.42-10.637 2.658-21.612 6.71-32.456 8.24-2.986.422-3.677-1.574-5.997-2.959-3.255-1.944-8.33-1.38-10.79 1.637-3.53 4.331-1.774 10.896 3.029 13.297 1.733.867 4.644-.04 5.85 1.196 1.795 1.838 2.69 4.735 3.763 7.016 2.44 5.191 4.998 10.317 7.408 15.522.848 1.832 3.26 5.31 2.891 7.399-.181 1.025-1.545 1.737-2.195 2.48-1.589 1.813-2.188 5.181-3.988 6.584-1.271.991-4.416.78-5.968.824-4.343.12-8.708 0-13.053 0-2.013 0-4.535.207-6.32-.951-2.49-1.615-2.522-5.468-5.674-7.065-2.208-1.12-5.052-1.347-7.409-.726-1.236.327-2.564 1.598-3.88 1.196-2.845-.87-5.787-4.26-8.114-6.076-5.74-4.477-11.693-8.747-17.639-12.945-3.173-2.24-7.575-4.511-10.133-7.437-1.033-1.182-.606-3.649-1.303-5.155-1.63-3.52-6.313-4.466-9.378-2.303-3.864 2.727-3.137 9.025 1.058 11.025 3.108 1.481 5.54-1.465 8.114-.833 2.637.647 5.201 3.168 7.409 4.654 6.886 4.639 13.49 9.661 20.108 14.67 2.15 1.627 7.171 4.107 8.183 6.664.688 1.74-1.408 4.87-.99 7.045.479 2.494 3.988 6.08 3.596 8.114-1.166 6.054-5.441 12-7.83 17.64-.979 2.31-2.049 6.363-4.096 7.937-2.222 1.708-6.104.245-8.74 2.107-2.056 1.45-3.158 5.674-5.292 6.418-2.326.81-6.006.118-8.467.118-5.906 0-12.117.555-17.992-.03-3.429-.34-3.287-2.695-5.32-4.91-2.121-2.307-5.793-3.126-8.79-2.224-7.817 2.353-8.008 15.53.705 16.66 2.874.372 6.051.178 8.084-2.088 1.267-1.411 1.55-4.362 3.557-4.85 2.761-.673 6.331-.089 9.173-.089 6.713 0 13.419.016 20.108.353 1.047 9.586 14.214 12.392 18.962 3.88 1.62-2.903 1.845-6.166.343-9.172-1.263-2.525-4.093-3.666-2.94-6.702 1.924-5.07 4.556-9.904 6.83-14.817 1.33-2.872 2.232-6.781 4.41-9.143 1.768-1.917 5.651-1.013 8.025-2.244 2.747-1.424 3.092-4.915 5.645-6.105 4.71-2.196 13.526-.5 18.697-.5 1.914 0 4.624-.452 6.34.598 1.775 1.086 2.157 4.18 3.567 5.752 1.664 1.853 4.69 2.208 6.145 3.969 1.139 1.378.529 4.577.529 6.262 0 5.824-.453 11.847-1.03 17.639-.357 3.597-.516 7.329-.724 10.936-.091 1.563.457 3.872-.588 5.203-.854 1.088-3.112 1.134-4.361 1.637-3.052 1.23-5.128 2.764-6.938 5.507-1.31 1.986-2.174 3.983-2.509 6.35-.228 1.615.366 3.597-1.166 4.713-3.343 2.436-8.774 3.233-12.67 4.46-9.877 3.108-19.821 6.096-29.634 9.367-1.367.456-3.845 1.512-5.282 1.088-1.63-.48-2.746-2.89-4.243-3.802-4.436-2.7-11.483-2.041-14.562 2.518-4.087 6.053-1.693 15.124 5.743 16.983 1.829.457 4.167.563 5.997.059 1.138-.314 2.71-1.605 3.88-1.372 2.806.558 6.456 6.642 8.467 8.672 4.907 4.953 9.477 10.343 14.14 15.522 1.324 1.47 4.926 3.894 5.136 5.998.195 1.963-2.299 4.7-2.342 7.055-.037 2.015 1.896 4.925 1.078 6.703-1.691 3.67-6.526 6.448-9.545 8.957-6.414 5.33-12.621 10.915-19.05 16.227-2.413 1.994-6.13 6.717-9.172 7.477-1.145.286-2.455-1.039-3.528-1.372-2.169-.672-4.248-.66-6.35.255-4.593 1.999-5.937 7.962-3.557 12.2 3.042 5.418 11.205 4.113 14.326-.352 1.07-1.532 1.418-3.465 1.147-5.292-.14-.946-.976-2.428-.431-3.312 2.236-3.63 7.872-6.607 11.093-9.418 6.151-5.368 12.67-10.344 18.697-15.855 2.33-2.131 6.168-6.496 9.525-6.79 1.75-.155 3.782 1.39 5.644 1.498 2.182.127 5.618-1.522 7.409-.382 4.466 2.843 8.334 9.315 11.641 13.445 3.179 3.968 6.565 7.811 9.908 11.642 1.41 1.615 3.802 3.677 4.644 5.644.542 1.266-.87 2.712-1.254 3.88-.476 1.45-.203 3.7-1.127 4.9-1.612 2.097-6.908 2.477-9.348 3.087-5.954 1.488-13.64 4.66-19.756 4.674-1.973.005-3.246-2.85-4.939-3.743-5.386-2.843-11.624 1.931-11.279 7.663.337 5.6 6.769 8.819 11.632 6.252 3.355-1.77 2.54-5.72 4.968-7.438 2.456-1.736 6.96-1.897 9.849-2.479 5.843-1.177 13.084-4.854 19.05-4.439 1.453.101 4.432 2.93 5.007 4.253.77 1.771-1.738 5.724-2.4 7.379l-6.35 15.875c-.895 2.233-1.62 5.548-3.205 7.37-1.04 1.194-3.288.797-4.694 1.596-3.601 2.047-4.361 7.3-1.617 10.407 2.962 3.354 9.353 1.745 10.623-2.44 1.043-3.44-1.856-5.24-1.823-8.114.024-2.071 1.82-4.772 2.558-6.702 2.126-5.567 4.484-11.041 6.702-16.58.814-2.033 1.816-6.287 3.753-7.507 1.6-1.008 4.382-.153 6.262-1.059.939-.451 2.075-1.746 3.175-1.567 2.944.476 6.468 4.297 8.82 6.007 6.07 4.412 11.99 9.021 17.991 13.523 2.299 1.724 6.132 3.633 7.634 6.124.992 1.645-1.192 7.12-.852 9.525.294 2.083.777 4.214 1.92 5.998.612.954 2.187 2.317 2.019 3.527-.349 2.51-3.759 5.221-5.292 7.056-5.57 6.665-11.587 12.954-17.394 19.403-1.847 2.051-4.172 6.412-6.761 7.477-1.018.418-2.509-.724-3.499-.98-2.51-.651-5.565-.458-7.76 1.078-2.045 1.429-3.883 4.013-4.205 6.536-.183 1.439.862 3.62-.147 4.792-1.77 2.055-5.658 3.17-7.996 4.517-6.968 4.016-13.88 8.134-20.814 12.21-5.061 2.976-10.096 6.009-15.17 8.957-2.84 1.65-5.667 4.055-8.819 5.076-2.58.836-4.85-1.66-7.76-.176-3.256 1.657-4.137 5.823-1.951 8.711 1.882 2.486 5.877 2.753 8.222.823 2.431-2 .866-5.298 2.587-7.075 1.845-1.905 5.086-3.132 7.369-4.459 5.346-3.106 10.573-6.424 15.875-9.603 6.18-3.705 12.457-7.261 18.697-10.858 3.149-1.815 6.697-4.33 10.23-5.262 2.096-.553 2.908 1.272 4.587 2.127 3.075 1.566 7.434 1.239 10.23-.745 2.83-2.008 3.947-5.68 3.45-9.035-.203-1.37-1.412-3.27-.774-4.586 1.33-2.75 4.441-5.159 6.467-7.409 5.358-5.95 10.602-11.994 15.905-17.991 2.018-2.283 5.41-7.415 8.339-8.418 1.755-.6 6.635 1.78 8.947 1.715 3.226-.09 7.174-4.017 9.877-1.97 5.23 3.958 9.12 10.042 13.759 14.67 1.53 1.527 4.578 3.783 5.086 5.997.451 1.971-1.691 5.038-1.549 7.408.153 2.532 2.543 4.883 1.304 7.409-2.715 5.532-7.362 10.448-10.838 15.522-2.973 4.338-5.788 10.134-9.663 13.71-2.016 1.86-5.799-.153-8.3 2.528-2.721 2.916-2.212 8.076 1.03 10.407 3.002 2.159 7.581 1.42 9.71-1.598 2.656-3.764-1.073-6.323-.117-9.525 1.57-5.26 7.252-11.053 10.407-15.522 3.031-4.294 6.34-11.541 10.69-14.503 2.325-1.583 6.287.427 9.173-.735 2.959-1.192 3.747-5.192 6.35-6.174 1.928-.727 4.77.213 6.703.598 3.712.74 7.56.712 11.289 1.48 1.428.294 4.105.426 5.184 1.46 1.747 1.674 1.297 5.002 3.292 6.908 1.677 1.602 4.86 1.931 6.223 3.597 1.004 1.228.485 4.017.558 5.527.23 4.737.486 9.443.618 14.19.116 4.2 1.647 10.412.235 14.463-.775 2.223-4.549 2.826-5.782 5.292-1.453 2.906.908 6.534-.303 8.82-2.026 3.821-6.579 6.972-9.672 9.887-5.031 4.74-9.682 9.86-14.817 14.483-1.484 1.336-2.835 3.437-4.586 4.41-2.044 1.136-4.844-1.096-7.409.45-4.141 2.5-3.89 9 .353 11.24 3.668 1.936 8.586-.187 9.143-4.487.237-1.832-1.095-4.144.069-5.645 5.805-7.485 14.28-13.617 20.853-20.49 1.95-2.04 5.824-7.002 8.741-7.468 2.553-.407 4.543 1.646 7.409.637 1.784-.627 3.907-3.686 5.644-3.518 3.21.313 7.43 4.141 10.23 5.704 7.223 4.029 14.3 8.319 21.52 12.347 3.153 1.759 8.475 3.836 10.819 6.585 1.36 1.596.242 5.146 1.97 7.261 2.969 3.639 8.675 3.599 11.602-.029 3.026-3.752 1.237-9.855-3.224-11.455-1.951-.7-4.127-.642-5.998.294-1.052.526-1.898 1.628-3.175 1.332-4.721-1.093-9.97-5.514-14.11-7.996-6.273-3.76-12.663-7.422-19.05-10.985-3.028-1.689-7.554-3.478-9.76-6.223-1.044-1.298-.67-3.63-1.559-5.154-1.385-2.375-5.29-3.013-6.144-5.292-.594-1.584-.04-3.63-.206-5.292-.646-6.494-.676-13.219-.676-19.755 0-2.74-.969-5.807.108-8.467.65-1.607 2.47-2.067 3.772-2.989 2.269-1.606 4.083-4.448 4.342-7.241.162-1.754.017-4.055-.775-5.645-.554-1.115-2.183-2.556-1.999-3.88.296-2.132 3.446-4.349 4.733-5.998 4.682-5.994 9.59-12.159 14.866-17.638 1.532-1.59 3.882-6.276 6.35-6.35 1.12-.034 2.498 1.211 3.528 1.626a17.07 17.07 0 0 0 8.114 1.166c1.738-.173 5.613-2.058 7.055-1.234 1.55.886 2.533 3.063 3.597 4.439 3.406 4.405 6.152 9.611 9.838 13.758 3.16 3.555 5.5 7.577 8.438 11.289.833 1.053 3.185 2.848 3.233 4.233.041 1.17-1.677 2.853-2.234 3.88-1.066 1.97-1.414 4.136-1.352 6.35.062 2.227.885 4.819 2.067 6.704.938 1.494 2.536 2.31 1.725 4.233-2.288 5.43-5.842 10.66-8.643 15.875-1.752 3.262-3.11 7.562-5.762 10.22-2.115 2.121-5.691.708-7.996 3.538-2.148 2.638-1.99 6.857.157 9.447 3.514 4.24 10.57 2.796 12.288-2.391 1.17-3.537-2.17-6.026-1.607-8.82.372-1.847 1.91-3.63 2.753-5.291 2.479-4.889 5.16-9.638 7.752-14.464 1.202-2.24 2.419-6.106 4.625-7.565.995-.658 5.583.588 7.105.5 1.632-.095 4.616-1.995 5.997-1.255 2.046 1.097 3.83 4.093 5.311 5.85 4.263 5.06 8.471 10.137 12.759 15.17 1.573 1.847 5.361 5.274 5.82 7.683.243 1.271-2.407 3.477-2.978 4.664-1.37 2.844-1.186 7.088.215 9.878 1.773 3.529 5.744 5.596 9.565 5.968 1.106.107 2.831-.64 3.792-.069 2.257 1.342 3.583 7.595 4.537 9.976 1.991 4.972 5.84 11.52 6.144 16.904.09 1.57-2.39 2.895-3.087 4.263-2.079 4.082-.258 9.4 4.136 10.926 4.277 1.485 9.589-.826 10.2-5.635.451-3.537-2.911-6.62-2.292-9.525.87-4.086 3.395-8.147 5.007-11.994l10.23-24.342c1.858-4.432 3.211-11.272 6.517-14.807 2.149-2.296 6.375-1.815 9.143-3.283 2.72-1.44 3.521-6.05 6.35-6.585 5.963-1.128 14.55 1.828 20.461 3.018 12.865 2.591 26.079 4.158 38.806 7.34 1.51.378 4.044.581 5.184 1.725.959.962.9 2.65 1.685 3.773 2.202 3.152 6.648 4.163 10.064 2.44 6.995-3.53 3.987-13.509-3.175-14.288-4.398-.478-5.84 4.853-9.172 4.753-10.31-.311-21.246-3.965-31.397-5.82-10.78-1.972-23.086-2.565-33.161-6.84 1.92-2.862 7.513-4.777 10.583-6.35v-.354l-1.058.353v-1.058l-.706.705c-1.208-.148-1.868.174-2.116 1.411l-1.059-.352c-.833.959-4.698 3.197-5.968 2.557-1.284-.647-2.03-2.873-2.988-3.939-1.54-1.712-3.962-2.982-6.213-3.42-1.536-.299-3.598.34-4.93-.608-2.433-1.733-3.51-6.73-4.595-9.407-2.92-7.206-5.954-14.352-8.957-21.52-1.38-3.294-4.36-7.646-4.41-11.288-.03-2.205 2.55-4.392 2.999-6.703.238-1.224-.197-2.806.608-3.851 1.214-1.58 4.092-1.783 5.88-2.284 5.019-1.405 10.108-2.605 15.169-3.87 5.532-1.383 11.047-2.85 16.58-4.234 2.21-.552 5.095-1.73 7.399-1.244 1.54.325 1.82 2.31 2.508 3.488 1.223 2.096 3 3.746 4.91 5.204 2.028 1.549 5.263 2.363 7.76 2.773.93.153 2.262-.47 3 .255 1.51 1.483 1.376 5.334 1.665 7.29 1.035 6.986 3.042 14.83 3.058 21.873 0 2.09-2.495 2.979-3.46 4.586-1.137 1.897-.018 3.823-.715 5.635-.52 1.353-2.75 2.3-3.9 3.067-1.429.953-7.879 3.976-7.879 5.762 0 2.272 3.714-.449 4.351-.843 2.432-1.503 5.973-4.975 8.82-5.37 3.66-.508 5.703 2.834 9.143-.852 2.768-2.967.44-5.202.43-8.32 0-1.581 3.31-4.491 4.538-5.429v-.353c-2.862-.24-5.082 4.692-7.399 3.802-2.874-1.104-2.548-9.353-2.969-11.916-.65-3.95-.728-8.063-1.411-11.994-.354-2.042-1.531-5.014-.745-7.046.728-1.88 4.321-2.913 5.821-4.272 4.295-3.894 6.014-9.474 5.213-15.14-.684-4.85-4.156-9.37-8.388-11.7-1.65-.91-4.6-1.023-5.82-2.5-1.643-1.987-.753-6.668-.892-9.084-.211-3.645-.242-7.27-.343-10.936-.04-1.405-.598-2.9.245-4.204 1.052-1.628 3.957-2.068 5.39-3.557 1.232-1.282 1.809-3.683 3.537-4.331 2.955-1.108 6.78-.608 9.878-.608 6.574 0 13.21-.261 19.755.284 2.063.172 4.373-.222 6.34.598 1.743.727 1.972 3.157 3.538 4.233 1.535 1.055 4.259.562 5.478 1.705 2.127 1.996 3.19 6.125 4.478 8.702 3.602 7.205 6.859 14.568 10.24 21.873a801 801 0 0 0 8.457 17.638c.77 1.56 3.234 4.922 2.48 6.703-2.419 5.71-8.864 4.396-14.072 4.332-1.505-.019-3.108-.747-4.361.254h-2.47c-.596-1.036-1.663-.704-2.469 0l1.058.706 3.175-.706c.708 1.171 2.936 1.059 4.234 1.059 3.446 0 7.57-.302 10.936.392 2.07.426 2.513 4.142 4.233 5.517 4.613 3.685 11.778-.049 11.534-5.91-.138-3.311-2.276-6.153-5.537-6.908-.961-.223-2.481.236-3.282-.343-2.069-1.495-3.284-5.686-4.4-7.918-7.102-14.202-14.737-28.91-20.403-43.744-1.79-4.689 3.86-8.152.402-13.053-1.992-2.823-6.876-3.91-9.711-1.676-1.43 1.127-2.017 3.284-3.88 3.763-7.737 1.989-17.16.048-25.048.03-3.097-.007-7.734.812-10.554-.745-1.053-.582-3.606-5.476-3.92-6.664-.554-2.1 4.36-8.291 5.518-10.23 4.575-7.662 9.17-15.279 13.758-22.93 1.535-2.56 3.479-7.38 6.056-8.977.976-.605 2.57.268 3.606.431 2.27.358 4.109.335 6.35-.225 2.432-.608 4.77-1.692 6.703-3.303 1.071-.892 2.347-2.983 3.88-2.969 3.596.033 8.964 4.974 11.995 6.791 8.11 4.862 15.876 10.306 23.989 15.17 3.168 1.899 8.06 3.792 10.544 6.516 1.322 1.45-.068 3.218.069 4.91.167 2.068 1.423 4.492 2.822 5.987 4.201 4.491 12.154 2.983 14.993-2.107 2.553-4.576.297-11.835-5.145-13.258-2.284-.598-4.831-.555-7.055.284-1.3.49-2.407 2.158-3.88 1.725-3.638-1.07-7.342-4.37-10.584-6.321-8.312-5.003-16.596-10.13-24.694-15.473-3.445-2.273-9.517-4.43-11.877-7.889-.823-1.205.078-2.908.206-4.223.195-2.01-.37-4.462-1.04-6.35-.722-2.04-2.112-4.047-3.596-5.615-.797-.843-2.276-1.524-2.263-2.852.028-3.006 3.166-6.798 4.321-9.525 2.178-5.14 4.78-10.127 7.173-15.17.92-1.938 1.865-5.223 3.587-6.585.838-.662 7.334-1.783 8.427-1.636 2.582.346 4.689 4.027 6.35 5.752 5.77 5.99 12.28 12.348 17.198 19.05 1.106 1.507-.037 2.928.167 4.586.476 3.877 4.625 5.922 8.035 4.136 3.376-1.769 3.42-6.958.343-8.996-2.035-1.349-4.648-.019-6.34-1.206-6.148-4.312-10.69-11.832-15.875-17.217-1.787-1.857-7.13-6.36-6.81-9.172.759-6.694 6.17-7.356 11.75-8.467 9.53-1.897 19.045-3.863 28.574-5.782 4.205-.846 9.105-2.56 13.406-2.43 1.496.046 2.132 1.608 3.175 2.49 1.462 1.236 3.406 1.664 5.291 1.46 5.847-.637 7.668-8.538 3.146-12.074-2.668-2.085-7.2-1.533-9.25 1.176-1.187 1.568-1.014 3.776-3.068 4.44-12.218 3.948-25.861 5.46-38.453 7.966-2.716.541-10.579 3.49-12.964 1.578-1.191-.955-1.65-2.92-2.695-4.086-1.185-1.321-3.484-2.164-4.116-3.91-.763-2.108.864-5.981 1.294-8.114 1.042-5.176 2.04-10.365 3.175-15.522.579-2.634.8-6.24 2.42-8.467 2.3-3.16 7.249-2.835 9.702-6.703 1.791-2.825 2.005-6.414.91-9.525-.498-1.418-2.637-3.447-2.126-4.939.905-2.64 3.685-5.234 5.37-7.408 3.09-3.984 5.975-8.092 9.183-11.994 1.61-1.96 2.654-5.088 4.693-6.635 2.055-1.558 6.098.508 8.78-1.626 4.299-3.42 2.802-11.51-2.459-13.092-5.501-1.656-10.199 2.446-9.868 7.947.095 1.574 1.788 3.5 1.392 4.939-.554 2.008-2.854 3.595-3.989 5.292-3.489 5.215-7.278 10.148-11.044 15.169-1.093 1.458-3.145 5.78-4.929 6.281-1.081.304-3.235-.997-4.37-1.205-1.252-.229-2.753.618-3.88.02-1.82-.966-2.837-3.78-3.891-5.449-2.98-4.714-6.154-9.512-8.722-14.464-1.44-2.779-.075-11.595-6.79-8.133-2.404 1.24-2.902 5.173-1.03 7.046 1.534 1.533 3.76.674 5.233 1.862 4.078 3.288 6.53 10.741 9.437 15.1.85 1.275 3.066 3.694 3.009 5.292-.04 1.083-1.466 1.752-2.107 2.48-1.646 1.865-1.77 5.147-4.312 6.026-7.204 2.49-16.122 1.3-23.636 1.734-4.561.264-9.572 1.46-14.111 1.02-4.051-.394-4.03-2.778-6.703-5.233-1.744-1.602-5.118-1.67-6.477-3.313-1.033-1.248-.81-3.99-1.069-5.536-.869-5.214-1.083-10.613-1.656-15.875-.407-3.741-2.48-10.17-1.264-13.759.86-2.538 4.623-3.573 5.85-6.35.628-1.419 1.183-3.383 1.01-4.938-.145-1.3-1.142-3.396-.48-4.587 2.505-4.509 9.086-8.584 12.905-12.023 8.553-7.702 16.52-16.26 25.4-23.578 1.763-1.452 3.962.496 5.998.647 4.685.347 8.54-3.852 8.084-8.437-.522-5.244-5.632-8.312-10.554-6.546-3.321 1.191-3.72 5.101-6.703 6.056-3.065.981-6.694.49-9.877.49-7.25 0-14.334-.314-21.52-1.03-2.732-.271-8.708.582-10.818-1.557-1.508-1.529-1.154-5.592-2.734-7.644-1.406-1.824-3.286-2.988-5.498-3.577-1.248-.332-3.474.136-4.253-1.048-2.367-3.603-2.826-9.924-3.998-14.072-3.279-11.61-6.748-23.127-10.564-34.572-1.269-3.808-4.083-8.68-4.204-12.7-.039-1.309 1.244-2.374 1.764-3.528 1.379-3.054.363-6.792-2.734-8.369-3.043-1.55-6.89-.382-8.368 2.725-1.23 2.583.94 5.635-.353 7.76-7.905 12.985-22.301 21.75-30.437 34.573-4.553-3.444-11.754-2.103-13.513 3.88-1.133 3.854 2.29 6.946 1.567 10.231-.671 3.056-3.042 5.77-4.546 8.467-3.022 5.416-5.942 10.9-9.124 16.227-1.245 2.085-2.741 6.567-4.811 7.86-1.5.936-4.205.004-5.91.343-1.048.208-2.069.993-3.174.852-2.342-.298-4.586-3.888-6.076-5.537-3.545-3.92-7.128-7.884-10.858-11.631-1.765-1.774-5.002-4.378-5.928-6.703-.81-2.036.954-5.397.5-7.761-.528-2.744-4.822-6.161-4.283-8.467.682-2.915 2.266-5.632 3.205-8.467.433-1.31.447-3.188 1.607-4.115 2.647-2.116 6.355-.643 9.045-3.999 3.185-3.974 2.565-10.59-1.676-13.591-5.44-3.85-13.222-1.202-15.17 5.125-.873 2.838.84 5.904-1.763 7.967-1.804 1.429-3.995 1.717-5.998 2.714-6.022 2.997-12.314 5.031-18.697 7.114-2.849.93-7.063 2.636-10.093 2.382-2.228-.188-4.013-6.167-5.792-7.693-2.377-2.038-7.278-2.56-9.044-4.762-1.388-1.73-1.096-6.257-1.176-8.428-.195-5.263-.763-10.595-1.068-15.875-.114-1.965-.88-4.404-.226-6.35 1.069-3.177 5.005-3.921 5.743-7.76.844-4.394-2.564-9.064-6.919-9.8-5.952-1.006-11.086 4.707-9.73 10.505 1.076 4.604 6.582 4.578 7.663 8.466 1.81 6.517 1.076 14.107 1.744 20.814.222 2.233 1.13 6.024-.01 8.104-.796 1.452-2.944 1.548-4.253 2.382-3.252 2.07-5.461 4.241-6.918 7.859-.975 2.418-1.49 5.17-1.059 7.76.232 1.389 1.629 4.361 1.01 5.616-.917 1.857-4.717 3.162-6.439 4.194-4.91 2.944-9.863 5.806-14.816 8.672-1.653.957-4.097 3.06-5.998 3.303-1.923.245-3.338-1.836-5.644-1.157-2.886.85-4.3 4.143-3.146 6.89 1.214 2.885 5.754 4.029 8.055 1.734 1.506-1.502.835-3.787 2.186-5.184 1.53-1.583 4.08-2.489 5.958-3.606 4.667-2.776 9.367-5.556 14.11-8.202 1.91-1.065 4.901-3.715 7.056-3.94 1.2-.124 6.089 3.454 6.938 4.469 1.591 1.901-.897 8.313-1.509 10.495-2.226 7.948-4 15.958-6.007 23.989-.626 2.504-.916 7.682-2.989 9.407-.836.697-4.246 2.58-5.252 2.676-1.533.145-3.247-1.491-4.586-2.068-5.03-2.166-9.736-5.01-14.817-7.056-4.202-1.692-8.288-4.026-12.347-6.056-1.513-.756-3.876-1.65-4.684-3.263-.594-1.184.136-3.57.098-4.929-.071-2.56-.953-5.052-2.558-7.055-1.654-2.065-4.033-3.77-6.614-4.44-1.444-.374-4.058-.045-5.184-1.028-1.323-1.156-1.635-3.868-2.117-5.469a607 607 0 0 0-4.184-13.405c-1.459-4.47-4.195-10.502-4.4-15.17-.081-1.829 2.35-3.498 2.94-5.291 2.004-6.099-2.055-10.77-8.222-10.584-5.623.17-8.512 7.414-5.85 11.985 1.866 3.204 6.343 2.438 8.094 4.959 4.404 6.337 4.75 16.465 7.418 23.626.988 2.652 3.36 7.34 2.842 10.22-.187 1.042-1.492 1.584-2.273 2.127-2.095 1.455-3.312 5.91-5.322 6.723-1.721.696-6.064-1.553-7.731-2.205-6.749-2.64-16.161-4.065-21.863-8.643-2.5-2.009-1.403-5.777-5.301-6.86-2.653-.737-5.629.585-6.624 3.224-.624 1.653.346 3.925-.55 5.292-1.308 2-4.056 3.326-5.85 4.87-5.293 4.559-11.094 8.682-16.61 12.984-2.815 2.196-10.583 6.086-11.288 9.662M1779.19 4.39c-3.09 1.968-5.696 5.59-8.466 8.084-6.621 5.962-13.27 11.921-19.756 18.031-3.142 2.96-7.53 8.863-11.641 10.319-1.799.637-5.306-2.461-7.84-2.264-2.676.209-5.365 3.262-7.683 3.048-1.754-.163-3.469-1.655-4.939-2.509-3.694-2.146-7.297-4.453-10.936-6.703-4.793-2.962-9.544-6.124-14.464-8.868-2.167-1.21-5.822-2.648-7.29-4.704-.84-1.174.01-3.487-.147-4.91-.21-1.92-1.342-3.84-2.577-5.281-1.88-2.193-5.313-1.884-6.968-3.655-2.958-3.165-4.375-10.289-5.83-14.347-1.697-4.728-3.596-9.382-5.292-14.11-.698-1.947-2.081-4.597-1.852-6.704.253-2.33 2.225-4.206 2.41-6.702.134-1.807-1.662-4-1.019-5.645 1.087-2.779 4.707-5.519 6.664-7.76 5.092-5.836 10.231-11.65 15.542-17.287 2.55-2.708 7.93-11.826 12.347-9.27 1.361.788 1.781 2.942 2.244 4.331 1.138 3.416 2.263 6.868 3.547 10.23 4.025 10.538 6.84 21.606 9.878 32.456 1.312 4.683 3.72 9.961 4.067 14.817.141 1.976-3.655 3.932-4.753 5.644-3.017 4.706-1.02 10.875 3.371 13.945 3.573 2.498 8.774 1.712 11.995-.97 1.215-1.012 2.318-3.434 3.89-3.763 2.653-.556 6.139.37 8.81.637 7.124.709 14.347 1.44 21.519 1.44 3.975 0 14.113-2.66 15.17 2.47m-184.503-55.66c1.28-.167 3.606.954 3.714 2.4.227 3.05-2.73 9.97-4.214 12.66-.8 1.45-2.723.617-4.086.765-2.058.224-4.55 1.287-5.968 2.803-.914.976-1.477 3.162-2.881 3.479-5.704 1.285-14.569-2.913-20.08-4.342-1.291-.334-6.007-1.575-4.683-3.645 1.331-2.082 7.686-2.754 9.975-3.4 6.372-1.8 12.217-3.769 18.345-6.35 3.042-1.282 6.615-3.948 9.878-4.37m-4.586 18.344c9.696-1.437 11.732 13.911 1.763 15.365-9.88 1.441-11.269-13.957-1.763-15.365m-34.837 1.097c1.899-.803 5.122.394 6.967.94 5.29 1.568 13.582 1.903 17.962 5.46 2.517 2.042 2.134 6.157 5.321 8.407 2.326 1.642 5.37 2.09 8.114 1.352 1.324-.355 3.243-2.064 4.586-1.548 2.207.848 3.72 3.41 5.292 5.027 4.05 4.165 8.081 8.376 11.965 12.7 1.317 1.466 4.596 3.968 4.821 5.997.264 2.373-2.393 5.33-2.322 8.114.08 3.16 2.973 5.837 1.274 8.82-2.552 4.48-6.857 8.644-10.436 12.347-1.224 1.265-2.817 3.579-4.596 4.027-1.552.392-3.63-.883-5.292-.852-1.613.03-3.783 1.516-5.292.803-1.747-.825-2.922-2.982-4.233-4.33-3.4-3.498-6.964-6.839-10.093-10.584-1.838-2.199-4.935-4.461-6.154-7.056-.679-1.443.569-3.31.294-4.939-.748-4.423-6.27-7.111-9.79-3.85-3.218 2.98-2.433 7.25 1.048 9.681 2.274 1.588 4.575-.295 6.703.774 2.468 1.24 4.98 5.06 6.781 7.154 3.958 4.596 10.626 9.365 13.288 14.816.769 1.574-1.076 3.9-1.205 5.645-.118 1.592 1.31 3.825.627 5.282-.907 1.932-4.376 3.733-6.085 4.948-5.093 3.62-10.477 8.71-16.228 11.191-1.961.847-2.734-1.555-3.89-2.714-2.381-2.387-5.798-4.372-9.163-4.87-2.17-.322-4.954-.388-7.055.274-1.206.38-2.928 1.845-4.204 1.156-1.37-.74-2.234-3.378-2.989-4.684-2.472-4.27-4.79-8.64-6.997-13.053-1.638-3.275-4.915-7.257-5.409-10.936-.259-1.926 2.006-3.782 1.96-5.997-.052-2.487-2.504-3.968-2.46-6.35.063-3.38 1.651-7.338 2.568-10.583 1.408-4.987 2.387-10.136 3.645-15.17.972-3.888 2.027-7.755 2.999-11.641.377-1.51.763-4.403 1.89-5.527.794-.791 2.65-.52 3.705-.774 2.236-.539 4.454-1.343 6.35-2.685 2.093-1.483 3.694-5.91 5.733-6.772m105.745 2.705c3.206 8.477 6.697 16.864 9.76 25.4.748 2.084 3.668 6.902 2.822 9.084-.596 1.538-3.988 3.178-5.144 4.674-2.516 3.254-1.53 8.255.823 11.289.884 1.14 2.77 2.008 2.979 3.528.25 1.821-1.084 4.263-1.578 5.997-1.508 5.297-3.098 10.646-4.84 15.875-.564 1.69-1.46 5.428-2.794 6.585-1.417 1.229-6.413 1.001-7.643-.245-5.135-5.202-9.076-13.734-12.641-20.098-1.516-2.706-5.851-7.356-5.664-10.584.222-3.837 3.621-6.062 2.606-10.583-.554-2.469-4.957-6.208-4.694-8.124.296-2.151 2.66-4.767 3.695-6.693 3.262-6.075 6.966-11.914 10.23-17.991 1.108-2.062 2.673-6.678 4.753-7.86 1.197-.68 5.677-.08 7.33-.254m-33.867 34.65c10.641-1.798 15.14 14.773 4.234 17.07-11.47 2.417-15.622-15.145-4.234-17.07m49.036 2.48c9-.75 9.863 13.388 1.059 14.346-9.285 1.01-10.45-13.564-1.059-14.346m-188.03 57.061c3.838.64 9.145-2.55 13.052-3.527 3.058-.765 4.322 3.55 7.762 2.116 4.957-2.065 4.353-9.328-1.059-10.23-4.272-.712-4.47 4.98-7.055 6.703-2.387 1.591-8.555 2.734-11.995 3.88-1.502.5-6.046 1.563-7.76.706-3.161-1.58-4.301-4.074-7.762-4.94-2.845-.71-6.476.624-8.467 2.117-1.095.822-2.25 3.103-3.527 3.528-1.35.45-5.124-2.562-6.35-3.175-5.068-2.533-10.073-5.213-15.17-7.76-1.636-.819-5.117-1.77-5.997-3.881-.572-1.374 1.764-5.779 1.764-7.762 0-2.07-.317-4.217-1.058-5.997-.402-.965-1.706-2.348-1.412-3.528.492-1.966 5.09-4.787 6.703-5.997 5.84-4.38 10.896-9.142 16.58-13.405 1.354-1.015 2.378-2.549 3.881-3.175 1.52-.633 2.815 1.142 3.88 1.764 1.794 1.045 5.403 2.353 7.762 1.763 2.015-.503 4.265-.962 5.997-2.116 1.356-.904 2.152-3.463 3.88-3.175 7.06 1.176 13.892 7.14 20.462 9.878 4.875 2.03 11.734 4.095 15.875 7.408 1.258 1.006.653 3.64 1.41 4.939 1.61 2.76 5.43 1.527 6.704 3.528 3.946 6.2 6.547 13.44 10.23 19.755 1.593 2.73 5.132 6.803 5.645 9.878.138.829-.953 1.505-1.411 2.117-1.233 1.643-2.684 4.031-3.175 5.997-.526 2.104 1.011 5.596.352 7.408-.466 1.284-3.198.8-4.233 1.058-3.497.875-7.111 1.602-10.583 2.47-13.15 3.287-27.43 9.724-38.453 17.992-9.568 7.176-18.7 14.115-26.106 23.988-1.805 2.407-3.74 4.418-5.644 6.703-.51.611-.838 2.403-2.117 1.764-1.526-.763-4.817-3.284-5.644-4.939-.653-1.305.729-2.893 1.058-3.88.663-1.99-.099-5.97-1.058-7.409-1.082-1.622-3.112-3.977-4.94-4.586-1.352-.45-3.705-.18-4.232-1.764-3.044-9.131-3.318-19.618-5.645-28.927-.299-1.196.388-2.716 0-3.881-1.639-4.916-2.242-10.026-3.528-15.17-.3-1.202-1.38-4.113-1.058-5.291.166-.61 4.645-3.734 5.644-4.233 1.163-.582 2.312.77 3.175 1.058 2.89.963 5.042 2.168 7.762 3.528 4.137 2.069 8.186 4.27 12.347 6.35 1.295.647 4.504 1.51 5.291 2.822.927 1.544-.447 4.209 0 5.997 1.216 4.861 5.23 8.01 9.878 9.172 6.031 1.508 11.767-4.027 13.053-9.172.377-1.507-.84-4.738 0-5.997.97-1.455 5.652-1.029 5.292-2.47m237.42 34.22-1.06-1.058-.352 1.41c2.616 1.034 5.134 6.199 2.43 8.575-3.286 2.889-8.727 4.166-12.66 5.978-8.065 3.715-16.105 7.833-24.342 11.132-2.342.938-9.26 5.628-11.612 4.4-1.901-.992-2.964-3.478-4.969-4.596-1.084-.605-3.157-.812-3.792-1.94-1.03-1.83-.62-4.929-.823-6.968-.63-6.334-.781-12.72-1.411-19.05-.42-4.208-2.704-11.481-1.264-15.512.587-1.645 3.238-2.709 4.468-3.9 2.505-2.428 3.955-6.045 4.204-9.516.244-3.397-1.506-7.532-3.851-9.877-1.139-1.139-3.651-2.276-4.106-3.88-.334-1.18.582-2.775.93-3.881 1.954-6.206 3.501-12.552 5.635-18.698.658-1.895.828-5.12 2.303-6.585.99-.983 3.455-.686 4.763-1.264 1.368-.605 3.106-2.655 4.586-2.607 2.876.094 6.711 4.05 9.172 5.43 6.976 3.907 13.752 8.2 20.461 12.533 2.246 1.45 6.03 2.704 7.644 4.87 1.687 2.263.302 6.666 2.018 9.496 2.38 3.923 7.5 2.992 8.252 7.76 1.196 7.599 1.465 15.3 2.224 22.931.276 2.77 1.916 6.785.911 9.515-.616 1.675-4.178 2.776-5.448 4.244-.495.57-1.005 1.76-1.872 1.822-.747.055-1.675-.632-2.44-.764m-67.733 35.983c-3.086-1.966-5.21-6.338-7.546-9.172-4.748-5.761-9.838-11.203-15.385-16.198-18.732-16.868-41.513-25.745-65.97-30.369.1-1.983-1.022-6.065-.097-7.731.886-1.597 3.237-2.67 4.684-3.695 4.182-2.962 8.506-5.73 12.7-8.643 1.962-1.362 3.615-3.748 5.997-4.449 1.444-.424 2.9 1.026 4.234 1.47 2.897.966 6.05.624 8.466-1.372 2.347-1.938 3.98-5.28 3.39-8.388-.27-1.427-1.742-3.55-1.42-4.939.635-2.742 5.332-6.71 7.232-8.82 1.972-2.19 6.068-8.309 9.143-8.672 1.523-.18 2.955 1.305 4.586 1.176 2.128-.167 5.26-1.71 7.055-.225 2.506 2.07 4.061 5.682 5.713 8.427 2.857 4.747 5.81 9.393 8.683 14.111 1.034 1.7 4.356 5.363 4.096 7.409-.215 1.684-2.825 3.229-3.783 4.586-2.188 3.1-3.416 7.51-2.567 11.289.996 4.435 4.936 8.122 9.025 9.74 1.942.769 5.82.362 6.566 2.607.836 2.515.586 5.49.872 8.114.677 6.227 1.143 12.465 1.764 18.697.368 3.699 1.896 9.074.882 12.69-.536 1.912-3.401 2.356-4.763 3.616-2.446 2.263-3.502 5.482-3.557 8.741m-238.83-105.745c16.356-1.325 18.212 24.888 2.116 26.34-16.854 1.522-19.088-24.965-2.117-26.34m11.642 153.37c-4.478-1.223-9.782-.11-13.406 2.9-2.562 2.13-4.062 7.15-7.76 6.106-7.943-2.243-15.385-6.157-23.284-8.516-2.335-.697-8.207-2.053-9.623-4.125-.832-1.217-.13-3.766-.285-5.184-.269-2.475-1.646-5.51-3.224-7.409-1.616-1.944-4.002-3.843-6.271-4.978-.993-.496-3.287-.377-3.763-1.46-1.185-2.696.235-7.282.235-10.142 0-9.37.091-19.308 1.44-28.575.313-2.148 4.657-2.916 6.321-4.126 3.799-2.76 5.026-7.67 3.744-12.102-1.075-3.714-4.547-7.056-8.33-7.967-1.442-.347-4.322.064-5.478-.754-2.165-1.534-3.722-7.207-4.84-9.623-2.188-4.725-4.444-9.416-6.694-14.112-.863-1.802-2.583-4.669-2.361-6.702.16-1.466 1.412-2.545 1.95-3.88.469-1.165.324-3.44 1.313-4.264 1.658-1.378 5.232-1.7 7.29-2.214 5.297-1.324 10.64-2.459 15.876-3.998 7.381-2.17 15.342-4.207 22.93-5.42 1.89-.301 5.173-1.861 7.026-1.264 1.26.407 1.142 2.391 1.637 3.4 1.215 2.476 2.947 4.836 5.096 6.566 1.967 1.586 4.522 2.937 7.055 3.283 1.223.167 4.527-.09 5.321.853 2.556 3.031 2.461 9.55 3.283 13.288 1.828 8.312 3.409 16.68 4.939 25.047.82 4.48 2.306 9.176 2.156 13.758-.061 1.869-3.198 3.03-4.4 4.243-2.466 2.491-3.537 6.14-2.685 9.516 1.317 5.22 6.473 8.93 11.847 8.035 1.663-.277 3.017-1.687 4.586-1.901 1.712-.234 6.876 4.218 6.987 5.89.102 1.513-1.652 3.026-2.39 4.203-1.669 2.66-3 5.665-4.42 8.467-3.712 7.322-6.318 14.799-8.84 22.578-1.085 3.35-1.282 7.525-2.978 10.583m197.555-120.483c-6.21 1.869-3.35 11.338 2.822 9.466 6.073-1.841 3.233-11.288-2.822-9.466m-77.258 4.498c13.134-1.946 16.63 17.305 3.528 19.246-12.096 1.792-15.648-17.45-3.528-19.246M1701.58 79.04c-7.094.23-6.467 10.84.706 10.358 6.753-.453 5.797-10.568-.706-10.358m-37.747 113.732h-.353c-.141-8.411-2.994-17.532-5.762-25.4-10.265-29.175-31.892-52.583-59.855-65.529-8.62-3.99-17.864-6.364-27.163-8.064-4.021-.736-8.927-.17-12.7-1.549v-.705c2.33-.911 4.456-2.144 6.212-3.96 1.05-1.083 2.13-3.443 3.675-3.762 2.727-.564 6.489.752 9.163 1.303 8.643 1.78 17.029 4.401 25.047 8.094 27.978 12.888 50.594 35.847 62.579 64.294a121.5 121.5 0 0 1 6.163 18.697c.458 1.9 1.783 5.124 1.314 7.056-.393 1.616-2.935 2.521-4.087 3.557-1.874 1.686-2.949 3.86-4.233 5.968m-115.712-101.6c-.39 2.053-2.558 1.627-4.233 1.793-4.164.415-8.206 1.53-12.347 2.058-15.765 2.007-31.55 11.644-44.097 20.736-17.802 12.898-28.978 31.17-37.66 50.907-2.64 6.002-3.99 12.941-5.007 19.403-.216 1.37-.464 7.18-1.548 7.85-.85.523-1.474-.521-1.754-1.147-.974-2.173-2.069-3.94-3.773-5.644-.89-.89-2.583-1.841-2.773-3.175-.368-2.576 1.238-6.35 1.93-8.82 1.74-6.212 3.762-12.388 6.272-18.344 12.143-28.823 36.156-50.667 64.068-63.589 7.535-3.488 15.51-6.067 23.636-7.741 2.437-.502 5.6-1.828 8.104-1.303 1.38.289 2.25 2.176 3.185 3.135 1.776 1.822 3.573 3.097 5.997 3.88m159.809-3.174v1.058c2.28 1.514 8.025 6.44 10.583 5.645l-.353 1.058 4.233 2.822 1.764.353v-.353l-.705-.353h.705l-7.055-5.644-3.175-2.117zm1.41.706-.352.353zm.705 0-.353.353zm1.411 1.412-.352.352zm1.764 1.058-.353.353zm3.175 2.117-.353.352zm.706.705-.353.353zm.705 0-.352.353zm3.881 2.47.705.352v.353zm14.111.793c10.036-2.067 14.201 13.085 4.233 15.346-9.772 2.217-14.113-13.31-4.233-15.346m-12.7.265.353.705zm-407.105 3.263c9.167-.806 9.668 13.945.352 14.7-9.4.76-9.693-13.878-.353-14.7m465.314 2.46c2.36-.328 8.104-.928 10.123.529 1.32.952 2.038 3.439 3.283 4.684 1.043 1.043 3.541 2.044 3.841 3.538.362 1.8-.495 4.231-.882 5.987-1.004 4.569-1.898 9.173-2.822 13.758-.756 3.755-.836 10.165-2.94 13.367-.765 1.164-3.021.75-4.253 1.234-3.304 1.3-5.847 3.536-7.045 6.919-1.2 3.387-.801 7.024 1.49 9.878.866 1.08 2.994 2.138 3.292 3.527.355 1.657-1.569 4.207-2.234 5.645-3.007 6.493-5.982 13.002-9.183 19.403-.828 1.656-2.16 6.058-4.321 6.281-2.201.227-4.396-.899-6.693-.559-1.217.18-3.043 1.268-4.224.716-1.84-.862-3.474-4.17-4.733-5.733-3.028-3.76-5.502-8.031-8.711-11.641-1.814-2.041-5.414-5.454-6.135-8.114-.32-1.182.817-2.466 1.215-3.528.766-2.042 1.098-4.569.47-6.703-.734-2.498-2.423-4.616-4.34-6.32-.902-.802-2.626-1.333-3.058-2.51-.865-2.357.67-6.034.911-8.456.633-6.351 1.484-12.692 2.117-19.05.265-2.665.023-7.526 1.421-9.839 1.01-1.672 5.062-2.048 6.722-3.36 2.145-1.696 2.392-5.646 4.322-6.929 1.924-1.279 5.79-.84 8.026-1.068 8.055-.82 16.333-.544 24.341-1.656m-51.152 50.721c-2.425.123-5.23 1.242-7.027 2.901-.901.832-1.602 2.386-2.851 2.754-2.167.638-7.224-3.309-9.172-4.283-8.405-4.202-16.672-8.67-25.048-12.935-1.724-.878-7.407-2.977-7.712-5.027-.884-5.937 7.34-7.743 11.593-9.574 9.722-4.186 19.172-8.998 28.928-13.131 5.767-2.443 10.136-5.7 15.052.225 1.6 1.93.265 7.137.127 9.437-.599 9.949-2.85 19.737-3.89 29.633m-336.198-21.372c-7.341 1.716-4.819 13.298 2.47 11.544 7.387-1.779 4.921-13.272-2.47-11.544m268.111 10.084c2.943.717 5.286 2.387 8.467 1.518 2.22-.606 4.946-3.771 7.056-3.537 3.51.39 7.852 3.802 10.936 5.458 6.889 3.7 14.022 7.02 20.814 10.887 2.214 1.261 8.818 3.016 9.76 5.458.422 1.095 1.004 6.4.558 7.38-.849 1.867-4.083 3.29-5.732 4.39-4.434 2.956-9.052 5.795-13.406 8.829-1.976 1.376-6.2 5.978-8.82 5.566-1.233-.194-2.222-1.947-3.174-2.685-2.104-1.632-4.433-2.812-7.056-3.322-1.18-.23-4.361.2-5.115-.549-1.848-1.834-2.285-8.584-2.95-11.171-1.632-6.352-4.085-12.749-6.84-18.697-1.366-2.952-4.106-6.309-4.498-9.525m127.353 5.722c10.933-1.62 13.517 15.166 2.47 16.777-10.652 1.553-13.198-15.187-2.47-16.777m-291.394 7.409c5.553-.772 12.435.913 16.933 4.204 1.094.8 3.76 2.316 3.802 3.831.047 1.635-4.602 7.1-6.271 6.84-1.542-.239-3.176-2.163-4.586-2.88-4.797-2.443-9.861-2.995-14.817-.471-11.298 5.753-11.456 24.905.705 29.888 4.134 1.694 9.016 1.705 13.053-.314 2.017-1.008 4.828-4.806 7.056-3.038 1.326 1.053 4.895 3.876 5.135 5.606.344 2.48-5.736 5.74-7.605 6.614-10.807 5.054-25.051 2.247-32.73-6.967-9.256-11.108-6.839-29.92 4.861-38.316 4.47-3.208 9.135-4.257 14.464-4.997m66.322 0c5.585-.776 14.715.742 19.01 4.674 1.574 1.44-1.861 7.584-3.517 8.388-1.4.68-3.642-1.335-4.91-1.852-4.145-1.689-16.913-4.47-16.913 3.528 0 4.297 5.901 5.609 9.152 6.399 4.904 1.192 10.566 2.143 14.464 5.625 6.637 5.929 5.177 17.586-2.117 22.313-2.662 1.725-5.669 2.887-8.819 3.332-6.643.938-14.122-.182-20.108-3.175-1.285-.643-3.958-1.718-4.469-3.175-.55-1.568 2.91-6.974 4.263-7.781 1.406-.84 4.252 1.866 5.497 2.49 4.426 2.212 18.2 5.504 19.021-2.745.423-4.255-5.296-5.79-8.437-6.575-5.603-1.4-11.412-2.182-15.846-6.262-6.879-6.33-3.576-18.27 3.851-22.5 3.057-1.74 6.463-2.21 9.878-2.684m66.675 15.444c-3.135-1.146-5.394-4.016-8.82-5.047-8.37-2.52-17.188 3.083-19.324 11.397-2.85 11.094 5.66 21.933 17.208 20.784 2.621-.26 4.91-1.308 7.055-2.793.92-.637 2.043-2.155 3.175-2.312 1.493-.208 6.346 4.75 6.546 6.193.245 1.762-2.903 3.503-4.076 4.38-5.482 4.099-12.735 5.287-19.403 4.36-24.904-3.458-30.796-38.629-8.114-49.917 7.316-3.641 18.722-3.777 25.753.617 1.414.884 5.544 3.13 5.713 4.959.191 2.068-4.528 5.638-5.713 7.379m-93.133-14.464v46.919c0 .995.306 2.634-.47 3.41-1.582 1.581-8.271.47-10.466.47v-50.8zm218.37 43.392c-5.775 4.221-8.62 12.049-5.557 18.698.883 1.916 4.738 5.605 4.566 7.408-.343 3.623-4.238 7.819-5.977 10.936-3.801 6.813-7.993 13.426-12.014 20.108-2.042 3.393-3.848 7.827-6.909 10.437-1.294 1.103-2.615.201-4.096.156-1.774-.053-3.786.636-5.292 1.539-2.91 1.745-2.954 5.86-5.33 7.37-1.695 1.075-4.413.774-6.311 1.038-5.977.83-12.002 1.305-17.992 2.067-2.01.256-5.443 1.304-7.379.559-1.274-.49-2.15-2.727-2.989-3.763-1.437-1.775-3.343-3.003-5.507-3.724-6.204-2.068-12.562 5.663-16.747-1.568-.76-1.312.199-2.744.872-3.88 1.718-2.899 3.355-5.809 4.86-8.82 4.432-8.863 7.887-18.507 9.888-28.222.666-3.23 1.447-6.6 1.803-9.878.178-1.63.058-4.896 1.068-6.232.936-1.237 4.893-.84 6.37-1.333 1.493-.497 3.76-2.612 5.292-2.4 1.836.253 3.956 4.032 5.076 5.38 3.528 4.245 7.14 8.39 10.583 12.7 1.21 1.515 3.417 3.193 4.184 4.938.953 2.166-1.381 4.455.06 7.056 2.073 3.745 6.92 4.157 9.7 1.058 2.57-2.862 1.63-6.903-1.38-9.006-2.157-1.506-4.372.188-6.35-.774-1.883-.914-3.661-3.814-5.018-5.39-3.428-3.98-6.865-7.955-10.23-11.994-1.25-1.5-4.19-3.984-4.39-5.997-.213-2.133 2.474-5.446 2.92-7.761.553-2.881-1.292-6.622-.452-9.172.578-1.755 3.057-2.907 4.47-3.93 4.418-3.202 9.04-6.481 13.757-9.211 2.616-1.514 6.44-5.807 9.525-6.007 2.022-.131 5.05 3.035 7.409 3.488 2.544.49 6.11-2.028 8.104-1.264 2.277.873 4.21 4.48 5.605 6.34 4.144 5.525 11.736 12.476 13.807 19.05m-409.928-18.697c1 2.53 2.785 4.886 4.94 6.556.96.745 3.083 1.506 2.968 2.97-.29 3.685-3.472 7.993-4.997 11.288-3.337 7.207-6.728 14.396-10.24 21.52-1.592 3.228-2.732 7.481-5.184 10.19-1.338 1.478-5.231.38-7.242 1.167-.793.31-1.853 1.12-2.744.862-1.285-.373-2.682-2.467-3.606-3.4-3.108-3.137-5.804-6.667-8.83-9.878-3.838-4.074-7.825-8.05-11.416-12.347-1.14-1.366-3.546-3.072-3.831-4.939-.28-1.83 1.716-8.608 3.263-9.574 6.339-3.956 15.834-5.021 22.93-7.173 7.816-2.37 15.741-6.375 23.99-7.242m29.29.96c2.354-.357 6.608 2.211 8.81 3.068 5.791 2.252 11.782 4.324 17.638 6.399 2.443.865 6.463 1.334 8.35 3.233 1.126 1.134.299 4.785.822 6.448.624 1.982 4.116 6.423 3.646 8.114-.624 2.246-2.792 4.47-4.106 6.35-3.252 4.653-6.615 12.006-11.21 15.405-2.404 1.777-7.074-.169-9.741 2.028-.824.679-1.3 2.746-1.725 3.734-1.03 2.391-.857 4.38.304 6.703.678 1.355 2.207 2.597 1.93 4.233-.372 2.203-2.078 4.974-2.998 7.056-2.657 6.008-5.503 11.943-8.065 17.991-1.094 2.582-2.708 7.953-4.812 9.76-.867.746-7.397 1.902-8.73 2.029-1.989.189-4.15-3.754-5.273-5.086-4.632-5.497-9.082-11.166-13.807-16.58-2.133-2.445-8.146-7.434-8.016-10.937.12-3.263 2.63-5.47 1.91-9.172-.514-2.647-4.382-5.2-4.32-7.408.066-2.425 2.307-5.592 3.311-7.761 3.017-6.517 6.09-12.983 9.3-19.403 2.089-4.177 3.772-8.56 5.938-12.7.706-1.349 1.219-3.187 2.519-4.116.962-.687 2.071-.07 3.145-.147 2.541-.182 5.118-.662 7.409-1.813 2.004-1.006 4.147-2.705 5.497-4.507.67-.893 1.01-2.729 2.274-2.92m50.084 5.82c12.55-1.772 14.624 17.833 2.117 19.599-12.862 1.816-14.754-17.814-2.117-19.599m251.884 0c11.882-1.65 15.121 17.58 3.175 19.599-13.237 2.237-16.382-17.765-3.175-19.599m-391.936 2.117c10.1-1.59 13.315 14.71 3.175 16.424-11.097 1.875-14.321-14.67-3.175-16.424m441.325 12.063c-6.471 1.453-4.419 11.464 2.116 9.936 6.17-1.442 3.953-11.3-2.116-9.936m-284.34.559c1.167 2.102.641 4.713.706 7.055.097 3.496.756 7.095 1.088 10.583.798 8.385 3.921 17.31 7.163 25.048 16.24 38.762 54.33 66.48 96.524 68.439-.813 1.654-3.81 2.47-5.291 3.664-1.548 1.247-3.226 4.775-4.969 5.39-2.1.741-6.287-.723-8.437-1.156-8.327-1.677-16.663-4.14-24.342-7.82-30.28-14.509-57.637-41.34-66.096-74.867-1.67-6.614-3.621-12.945-4.489-19.756-.241-1.9-1.295-5.148-.558-6.977.684-1.7 3.811-3.148 5.037-4.665 1.216-1.506 1.971-4.076 3.665-4.938m221.544 1.763c1.23 2.325 3.497 4.59 5.645 6.105.943.667 2.958 1.183 3.322 2.391.795 2.647-.677 7.496-1.127 10.202a123.8 123.8 0 0 1-8.055 27.87c-13.06 30.997-39.287 55.617-71.046 66.792-8.387 2.95-17.097 3.89-25.753 5.527-2.65-3.917-5.144-6.315-9.172-8.82v-.353c7.494-2.77 16.545-1.462 24.342-3.88 29.442-9.133 57.462-28.801 70.173-57.856 3.971-9.076 7.84-18.758 9.476-28.575.71-4.264 1.031-8.744 1.46-13.053.204-2.043-.322-4.535.735-6.35m-234.597 9.173c4.194 20.368 8.354 41.384 21.118 58.56 4.688 6.31 9.358 12.75 14.757 18.473 1.17 1.238 5.843 4.097 5.596 5.87-.356 2.555-6.076 6.219-7.957 7.839-7.907 6.809-15.691 13.72-23.989 20.03-5.239-3.06-9.022-6.47-15.522-4.694-2.686.734-6.235 4.427-8.82 4.224-2.96-.233-6.85-4.556-9.172-6.282-5.897-4.382-11.761-8.801-17.639-13.21-2.163-1.622-5.78-3.58-7.28-5.82-.963-1.436.898-5.359.43-7.38-.556-2.401-3.963-4.953-3.959-7.055.01-4.014 4.413-9.833 6.125-13.405 2.647-5.524 4.682-11.404 7.408-16.934.73-1.48 1.075-3.61 2.088-4.9.89-1.135 3.38-.239 4.713-.538 2.707-.608 4.927-2.37 6.262-4.792 1.48-2.686 1.253-5.14-.294-7.761-.522-.885-1.622-1.723-1.607-2.823.024-1.756 2.218-4.223 3.165-5.644 2.554-3.831 5.3-7.594 8.045-11.289 1.112-1.496 2.238-3.799 3.842-4.811 1.276-.806 2.702.667 3.87 1.146 2.841 1.164 5.804 1.196 8.82 1.196m-59.62-1.245c-6.695.636-5.221 10.404 1.412 9.682 6.11-.665 4.515-10.244-1.412-9.682m211.667 4.067c-2.163 4.086-6.446 8.12-11.289 6.35 1.888-4.779 5.944-8.304 11.29-6.35m-27.87 0c.94 4.977.352 10.46.352 15.522v10.583c0 3.151 1.093 8.708-.117 11.603-.498 1.192-6.63 1.283-7.389.274-1.065-1.415-.255-5.895-.255-7.643v-21.52c0-2.088-.836-6.641.598-8.349 1.01-1.202 5.326-.47 6.81-.47m-50.447 18.697v.706c7.584 1.816 8.668 11.93 2.823 16.433-4.8 3.698-12.312 2.617-17.992 2.617-2.17 0-4.943.461-7.046-.089-1.952-.51-1.005-5.98-1.283-7.672-1.159-7.05-.138-15.076-.138-22.225 0-1.637-.818-6.237 1.069-6.938 1.725-.642 4.505-.118 6.34-.118 5.355 0 13.11-1.214 17.639 2.264 4.69 3.601 5.033 12.991-1.412 15.022m-128.41-13.758.352.352zm1.411.352.353.353zm111.125 2.47c0 1.984-1.049 7.078.255 8.643.68.815 3.334.176 4.332.176 2.13 0 4.848.437 6.693-.882 5.612-4.01-.995-8.41-5.282-8.28-1.972.06-4.028.17-5.998.343m-108.302.705.705.706v-.706zm2.116 1.764.353.353zm185.561 16.58c.767 3.723 4.125 6.74 8.114 6.204 3.612-.485 6.766-4.37 9.133.5.77 1.581-.9 2.616-2.077 3.37-2.74 1.757-6.695 2.292-9.878 1.843-13.676-1.931-17.451-21.57-4.233-27.291 6.887-2.982 15.346.407 17.531 7.614.5 1.652 1.89 5.692.568 7.232-.91 1.06-3.79.529-5.046.529zm-45.508.353c1.421 3.381 3.982 6.328 8.114 5.85 2.734-.317 5.826-3.762 7.977-1.254 4.142 4.828-4.876 7.045-8.33 7.045-11.89 0-20.446-14.351-11.612-23.989 4.862-5.304 13.988-5.85 19.373-1.028 2.081 1.862 6.265 9.89 3.705 12.553-.97 1.007-3.827.47-5.116.47-4.449 0-9.808-.804-14.11.353m94.544-11.995c2.251-6.16 12.659-5.835 16.276-1.381 3.41 4.197 2.42 10.813 2.42 15.845 0 1.618.89 7.909-.744 8.643-1.084.488-5.624.65-6.409-.353-.709-.905-.255-3.311-.255-4.41 0-4.012.487-8.369-.029-12.347-.439-3.39-4.427-5.676-7.378-3.704-4.404 2.943-2.823 10.417-2.823 14.993 0 1.308.58 4.473-.47 5.42-1.549 1.397-4.777.316-6.585.225-.013-3.048-.353-6.096-.353-9.172 0-2.665.762-6.747-.45-9.173-2.164-4.327-7.767-3.696-9.418.706-1.334 3.556-.363 8.924-.363 12.7 0 1.197.494 3.827-.254 4.821-.668.887-5.816.869-6.684.216-1.125-.847-.47-4.799-.47-6.095v-15.17c0-1.336-.574-4.426.255-5.527.672-.893 5.874-.893 6.546 0 .49.65.255 1.939.255 2.705 6.608-4.165 11.165-5.016 16.933 1.058m-49.036 7.056h5.644c1.46 0 5.442.77 6.586.01 1.675-1.115-.743-4.123-1.647-4.86-4.058-3.313-10.497-.3-10.583 4.85m-45.508 0h12.7c-.408-8.083-12.3-7.943-12.7 0m-191.912-2.019c9.988-.97 12.532 15.359 2.47 16.453-1.894.206-4.314.277-5.998-.705-7.14-4.165-4.608-14.957 3.528-15.748m158.044 2.372v9.525c3.516 0 9.206 1.08 12.348-.677 3.343-1.869 3.129-6.8-.353-8.456-3.065-1.458-8.633-.392-11.995-.392m237.773 31.122c9.045-1.528 11.583 12.83 2.47 14.602-9.607 1.867-12.258-12.948-2.47-14.602m-297.745 1.833c-7.253 1.83-3.96 13.828 3.175 11.68 7.3-2.196 4.375-13.585-3.175-11.68m141.111 54.886c6.289-1.215 13.355-1.616 19.413-3.684 15.857-5.416 30.265-12.621 43.382-23.127 7.047-5.644 13.075-12.01 18.697-19.05 1.326-1.66 4.112-7.185 6.35-7.34 1.655-.114 5.457 2.464 5.576 4.165.234 3.346-1.928 5.808-.853 9.525.585 2.02 1.777 3.74 3.391 5.076.895.742 2.867 1.525 3.136 2.715.718 3.175-1.287 7.214-2.185 10.2-1.93 6.41-3.501 12.958-5.322 19.404-.753 2.669-1.524 9.624-3.566 11.455-.78.7-3.312.359-4.41.608-2.251.51-4.346 1.998-5.752 3.821-1.64 2.125-2.104 4.412-2.147 7.046-.019 1.196.899 2.624.02 3.655-2.783 3.266-8.014 4.686-11.445 7.066-6.635 4.6-13.307 9.153-20.187 13.405-2.513 1.554-5.48 4.498-8.467 5.037-2.255.407-5.515-2.304-8.114-2.352-1.974-.036-4.935 1.658-6.673 1.206-1.699-.443-3.37-3.766-4.4-5.086-3.52-4.513-6.888-9.115-10.23-13.759-3.125-4.34-9.268-9.951-10.633-15.169-.451-1.725 1.83-3.777 2.577-5.292 1.545-3.132 1.843-6.082 1.843-9.525m90.31 10.584c.979-9.309 5.447-19.186 7.978-28.223 1.13-4.037 1.289-9.524 3.753-13.013.964-1.365 5.284-1.336 6.967-2.244 4.993-2.693 5.415-6.61 6.35-11.554 7.431-.125 15.167-1.744 22.578-2.499 2.63-.267 6.594-1.503 9.162-.558 1.632.6 2.345 3.884 3.567 5.164 1.345 1.408 4.004 1.645 5.018 3.214 1.073 1.662.597 4.447.597 6.321 0 4.161.121 8.526.363 12.7.095 1.636.788 4.391-.265 5.89-.73 1.04-2.867 1.142-3.978 1.587-2.094.838-4.068 2.195-5.635 3.812-2.028 2.093-3.382 4.224-4.096 7.055-.323 1.281-.333 4.555-1.323 5.4-2.799 2.39-8.056 2.88-11.524 3.724-8.116 1.972-16.155 4.534-24.342 6.183-2.956.595-6.416 2.267-9.495 1.588-1.821-.403-3.76-3.566-5.674-4.547m-184.856-38.326c1.51-.087 3.146 1.827 4.233 2.695 2.919 2.33 6.04 4.437 9.173 6.468 10.515 6.815 22.162 11.862 34.219 15.267 3.6 1.017 7.304 1.728 10.936 2.577 1.047.245 3.26-.006 3.979.912.794 1.014.477 4.138.744 5.468.414 2.051 2.664 5.11 2.42 7.055-.253 2.034-2.667 4.188-3.938 5.645-3.151 3.61-6.835 7.082-9.663 10.936-2.798 3.814-5.779 7.524-9.064 10.936-1.015 1.054-1.967 2.918-3.253 3.626-1.932 1.062-5.807-.672-8.389.392-2.595 1.07-4.422 5.964-6.712 6.203-5.626.586-12.069-1.205-17.63-2.029-1.689-.25-4.534-.146-5.88-1.362-.774-.7-.803-2.362-1.273-3.302-1.046-2.091-2.746-3.499-4.84-4.488-3.375-1.594-6.79 1.315-9.526.245-1.895-.742-3.305-3.121-4.615-4.577-3.706-4.115-7.724-8.03-11.191-12.347-1.179-1.467-3.732-3.432-4.175-5.292-.401-1.683 2.328-5.363 2.617-7.408.381-2.703-1.738-7.733-.726-9.878.935-1.978 3.429-3.564 5.037-4.968 4.787-4.178 9.82-7.995 14.464-12.328 2.944-2.746 6.053-5.418 9.172-7.967 1.026-.837 2.474-2.397 3.881-2.479m77.258 20.765c12.662-1.876 15.513 17.484 2.822 19.599-12.47 2.078-15.545-17.714-2.822-19.599m57.503 16.669c-6.785 2.057-2.762 12.311 3.88 9.907 6.343-2.296 2.494-11.84-3.88-9.907m-115.358.333c-6.763 1.503-4.278 11.349 2.47 9.584 5.62-1.47 3.24-10.853-2.47-9.584m269.17 16.08v1.06h1.057v-1.412c1.85.351 2.545-1.774 4.234-2.4 1.644-.611 3.456.72 5.291-.109 1.689-.76 2.454-3.089 4.234-3.449 1.575-.319 6.015.605 6.35-1.097-1.392.187-5.852-.565-7.026-1.294-2.534-1.573-3.24-4.95-7.085-3.479-4.019 1.539-2.22 4.356-3.156 7.242-.549 1.694-2.496 3.866-3.9 4.939m37.395-7.056-.353.353zm-9.173.353-.352.353zm3.175 0-.352.353zm4.234 0-.353.353zm-152.048 7.938c2.072.038 4.181 2.478 6.35 2.91 1.651.329 4.626-.72 5.968.216 2.473 1.723 3.75 7.407 4.91 10.103 3.176 7.377 6.07 14.874 9.319 22.225 1.128 2.552 3.992 7.553 4.018 10.23.013 1.354-2.052 2.174-2.803 3.175-1.665 2.223-2.917 4.94-2.91 7.761.01 2.474 1.441 5.254 3.047 7.056.97 1.088 3.142 2.273 3.058 3.88-.368 7.015-6.071 15.4-8.663 21.873-3.23 8.064-6.775 15.994-10.162 23.989-.71 1.677-2.244 7.18-4.38 7.29-3.8.198-5.323-7.005-6.33-9.76-1.424-3.891-2.84-7.794-4.38-11.641-.742-1.85-2.276-4.69-2.216-6.703.051-1.704 2.436-3.474 3.264-4.94 1.664-2.947 1.396-6.988-.236-9.877-1.871-3.314-5.331-5.58-9.142-5.968-1.526-.155-3.895.924-5.145-.147-6.279-5.379-11.402-14-16.806-20.343-2.087-2.45-6.26-6.046-7.144-9.172-.561-1.989 2.43-5.978 2.528-8.467.088-2.246-2.474-6.645-1.724-8.437.868-2.076 4.944-3.645 6.771-4.753 4.785-2.902 9.391-6.244 14.111-9.27 4.472-2.867 8.848-5.92 13.406-8.653 1.321-.793 3.736-2.606 5.291-2.577m115.359-.177.353 1.059zm-297.392 13.847c8.022-1.597 11.277 11.82 2.822 13.582-9.171 1.91-11.937-11.768-2.822-13.582m283.633-.089.353.353zm-1.058 1.058.353.353zm.353.705.353.353zm-1.058 1.059.352.352zm-.706.352.353.353zm-1.411 1.058-.353.705zm-193.675 10.397c-7.785 2.288-3.683 14.24 3.88 11.299 6.62-2.575 3.007-13.324-3.88-11.299m165.1 13.592.353.352zm-1.411.352.353.353zm-2.47 1.41 1.059 1.059 1.41-.706v-.352l-.352-.706zm3.175-.706.353.353zm-5.291 1.764.352.353zm-28.575 2.9c11.887-1.98 14.483 15.786 2.47 17.483-10.777 1.521-13.235-15.688-2.47-17.482m23.871.039.235.117zm.823.235.353.353zm-.823.47.235.118z" style="fill:#005db1;fill-opacity:1;stroke:none" transform="translate(-1237.827 101.482)"/></svg>